<svg width="112" height="94" viewBox="0 0 112 94" fill="none" xmlns="http://www.w3.org/2000/svg">
  <defs>
    <linearGradient id="miniPacket" x1="21" y1="16" x2="75" y2="82" gradientUnits="userSpaceOnUse">
      <stop stop-color="#FF8975"/>
      <stop offset="0.52" stop-color="#EF4238"/>
      <stop offset="1" stop-color="#C4291E"/>
    </linearGradient>
    <linearGradient id="miniPacketSide" x1="47" y1="18" x2="75" y2="75" gradientUnits="userSpaceOnUse">
      <stop stop-color="#E63C31"/>
      <stop offset="1" stop-color="#991813"/>
    </linearGradient>
    <linearGradient id="miniGold" x1="25" y1="28" x2="78" y2="70" gradientUnits="userSpaceOnUse">
      <stop stop-color="#FFF2BF"/>
      <stop offset="0.52" stop-color="#F6BB4E"/>
      <stop offset="1" stop-color="#DC8725"/>
    </linearGradient>
    <filter id="miniShadow" x="5" y="8" width="92" height="83" filterUnits="userSpaceOnUse" color-interpolation-filters="sRGB">
      <feDropShadow dx="0" dy="10" stdDeviation="8" flood-color="#8B2D1F" flood-opacity="0.2"/>
    </filter>
  </defs>
  <path d="M90 16L94 27L105 31L94 35L90 46L86 35L75 31L86 27L90 16Z" fill="#F7C65A"/>
  <path d="M19 61C16 62 14 59 16 56L22 46C24 43 28 44 29 47L33 59C34 62 31 65 28 64L19 61Z" fill="#FFD984" opacity="0.95"/>
  <g filter="url(#miniShadow)" transform="rotate(-7 49 50)">
    <rect x="36" y="22" width="50" height="56" rx="8" fill="url(#miniPacketSide)"/>
    <rect x="18" y="17" width="62" height="66" rx="10" fill="url(#miniPacket)"/>
    <path d="M25 28C32 22 67 19 74 26C69 36 59 43 49 43C39 43 30 36 25 28Z" fill="#FFA08A" fill-opacity="0.56"/>
    <path d="M24 50C36 44 64 43 77 49L76 56C61 51 42 52 25 58L24 50Z" fill="url(#miniGold)"/>
    <circle cx="51" cy="50" r="14" fill="#FFF2CA"/>
    <circle cx="51" cy="50" r="10.8" fill="url(#miniGold)"/>
    <path d="M51 43V58M46 47H56M47 52H55" stroke="#DF8625" stroke-width="3" stroke-linecap="round"/>
    <path d="M23 21C36 24 58 22 76 17" stroke="white" stroke-opacity="0.34" stroke-width="2.5" stroke-linecap="round"/>
    <path d="M72 28C76 34 77 41 76 49" stroke="#8E1510" stroke-opacity="0.16" stroke-width="3" stroke-linecap="round"/>
  </g>
  <path d="M80 60L86 64L92 60L90 67L96 71L89 71L87 79L84 72L77 72L82 67L80 60Z" fill="#FFD36E"/>
  <circle cx="87" cy="13.8" r="2.2" fill="#FFD987"/>
  <circle cx="100" cy="56" r="2.6" fill="#FFE8B1"/>
</svg>
