<svg width="180" height="176" viewBox="0 0 180 176" fill="none" xmlns="http://www.w3.org/2000/svg">
  <defs>
    <linearGradient id="coinFace" x1="24" y1="5" x2="64" y2="58" gradientUnits="userSpaceOnUse">
      <stop stop-color="#FFF6B8"/>
      <stop offset=".55" stop-color="#FFD76C"/>
      <stop offset="1" stop-color="#FFAB3D"/>
    </linearGradient>
    <linearGradient id="cardGrad" x1="54" y1="34" x2="134" y2="142" gradientUnits="userSpaceOnUse">
      <stop stop-color="#FF7B65"/>
      <stop offset=".48" stop-color="#FF456F"/>
      <stop offset="1" stop-color="#A42DF5"/>
    </linearGradient>
    <linearGradient id="mintRing" x1="44" y1="36" x2="156" y2="142" gradientUnits="userSpaceOnUse">
      <stop stop-color="#83FFE1"/>
      <stop offset="1" stop-color="#35D7B4" stop-opacity=".2"/>
    </linearGradient>
    <filter id="softShadow" x="-40%" y="-40%" width="180%" height="180%">
      <feDropShadow dx="0" dy="12" stdDeviation="10" flood-color="#001818" flood-opacity=".35"/>
    </filter>
    <filter id="coinShadow" x="-50%" y="-50%" width="200%" height="200%">
      <feDropShadow dx="0" dy="7" stdDeviation="6" flood-color="#000000" flood-opacity=".2"/>
    </filter>
  </defs>

  <ellipse cx="95" cy="148" rx="60" ry="13" fill="#001B1D" opacity=".22"/>
  <path d="M39 100c10-46 62-72 105-43" stroke="url(#mintRing)" stroke-width="5" stroke-linecap="round" opacity=".82"/>
  <path d="M151 64c14 24 10 55-10 76" stroke="url(#mintRing)" stroke-width="5" stroke-linecap="round" opacity=".42"/>

  <g filter="url(#coinShadow)">
    <circle cx="38" cy="46" r="21" fill="url(#coinFace)"/>
    <circle cx="38" cy="46" r="14" stroke="#FFF8C6" stroke-width="3" opacity=".8"/>
    <path d="M38 34v24M31 42h14c4 0 4 8 0 8H31" stroke="#8A5B00" stroke-width="3" stroke-linecap="round" stroke-linejoin="round" opacity=".8"/>
  </g>

  <g filter="url(#coinShadow)">
    <circle cx="139" cy="39" r="15" fill="url(#coinFace)"/>
    <path d="M139 31v16M134 36h9c3 0 3 6 0 6h-9" stroke="#8A5B00" stroke-width="2.4" stroke-linecap="round" stroke-linejoin="round" opacity=".75"/>
  </g>

  <g filter="url(#softShadow)" transform="rotate(-7 96 88)">
    <rect x="59" y="38" width="79" height="103" rx="18" fill="url(#cardGrad)"/>
    <rect x="67" y="48" width="63" height="83" rx="14" stroke="rgba(255,255,255,.42)" stroke-width="2"/>
    <circle cx="99" cy="82" r="25" fill="rgba(255,255,255,.16)"/>
    <circle cx="99" cy="82" r="18" fill="url(#coinFace)"/>
    <path d="M99 70v24M92 78h13c4 0 4 8 0 8H92" stroke="#8A5B00" stroke-width="3" stroke-linecap="round" stroke-linejoin="round" opacity=".82"/>
    <path d="M78 58c12-7 29-8 42 0" stroke="rgba(255,255,255,.45)" stroke-width="4" stroke-linecap="round"/>
  </g>

  <path d="M29 84 16 78M35 108l-18 8M153 91l15-8M148 112l15 12" stroke="#FFD76C" stroke-width="5" stroke-linecap="round" opacity=".86"/>
  <path d="M48 22 40 11M125 18l9-10M161 55l11-3" stroke="#75FFD6" stroke-width="4" stroke-linecap="round" opacity=".75"/>
  <circle cx="62" cy="19" r="3" fill="#FFF2A6"/>
  <circle cx="157" cy="138" r="4" fill="#75FFD6" opacity=".75"/>
</svg>
