<svg width="160" height="160" viewBox="0 0 160 160" fill="none" xmlns="http://www.w3.org/2000/svg">
  <defs>
    <radialGradient id="faceGlow" cx="0" cy="0" r="1" gradientUnits="userSpaceOnUse" gradientTransform="translate(52 34) rotate(57) scale(118)">
      <stop stop-color="#FFF3C5"/>
      <stop offset=".34" stop-color="#C49752"/>
      <stop offset=".72" stop-color="#21160E"/>
      <stop offset="1" stop-color="#080706"/>
    </radialGradient>
    <linearGradient id="rim" x1="24" y1="18" x2="136" y2="144" gradientUnits="userSpaceOnUse">
      <stop stop-color="#FFF0B8"/>
      <stop offset=".28" stop-color="#D4A35B"/>
      <stop offset=".62" stop-color="#7B4D20"/>
      <stop offset="1" stop-color="#F2D58F"/>
    </linearGradient>
    <linearGradient id="road" x1="75" y1="56" x2="104" y2="138" gradientUnits="userSpaceOnUse">
      <stop stop-color="#1D1510"/>
      <stop offset=".45" stop-color="#080706"/>
      <stop offset="1" stop-color="#D6AC62"/>
    </linearGradient>
    <clipPath id="clip">
      <circle cx="80" cy="80" r="62"/>
    </clipPath>
  </defs>
  <circle cx="80" cy="80" r="76" fill="#100C08"/>
  <circle cx="80" cy="80" r="72" fill="url(#rim)"/>
  <circle cx="80" cy="80" r="65" fill="#F6E6BD"/>
  <g clip-path="url(#clip)">
    <rect x="18" y="18" width="124" height="124" fill="url(#faceGlow)"/>
    <path d="M28 94C54 54 95 35 132 32" stroke="#B8893C" stroke-opacity=".42" stroke-width="1.4"/>
    <path d="M24 118C62 83 102 64 146 58" stroke="#F0CB7E" stroke-opacity=".28" stroke-width="1.1"/>
    <path d="M38 44C61 28 91 27 120 42" stroke="#9E6C2E" stroke-opacity=".34" stroke-width="1"/>
    <path d="M80 24C93 43 98 63 94 84C91 101 84 120 80 144" stroke="#8A5C2B" stroke-opacity=".34" stroke-width="1.1"/>
    <path d="M32 84C52 92 71 97 88 101C104 105 120 109 143 120" stroke="#8A5C2B" stroke-opacity=".28" stroke-width="1.1"/>
    <path d="M80 56C96 73 108 98 118 142H86C84 112 75 86 60 62L80 56Z" fill="url(#road)"/>
    <path d="M90 54L99 132" stroke="#EAC47A" stroke-opacity=".55" stroke-width="2" stroke-linecap="round"/>
    <path d="M58 108C70 94 81 87 96 78C84 98 76 119 72 146H42C44 130 49 118 58 108Z" fill="#11100D"/>
    <path d="M62 106C72 96 82 90 94 84" stroke="#EAC47A" stroke-opacity=".42" stroke-width="2" stroke-linecap="round"/>
    <path d="M65 66H72V122H65V66Z" fill="#1A1815"/>
    <path d="M84 55H92V126H84V55Z" fill="#171512"/>
    <path d="M65 66L68.5 54L72 66H65Z" fill="#23201C"/>
    <path d="M84 55L88 40L92 55H84Z" fill="#23201C"/>
    <circle cx="58" cy="39" r="1.6" fill="#C9974C"/>
    <circle cx="119" cy="48" r="1.4" fill="#C9974C"/>
    <circle cx="110" cy="104" r="1.2" fill="#E2B96D"/>
    <path d="M44 41C62 54 95 56 124 44" stroke="#C9974C" stroke-opacity=".38" stroke-width="1"/>
    <path d="M40 61C73 72 101 72 132 62" stroke="#C9974C" stroke-opacity=".3" stroke-width="1"/>
  </g>
  <circle cx="80" cy="80" r="64" stroke="#FFF1BD" stroke-opacity=".42" stroke-width="2"/>
  <circle cx="80" cy="80" r="75" stroke="#4A2E15" stroke-opacity=".56" stroke-width="1"/>
</svg>
