<svg width="960" height="260" viewBox="0 0 960 260" fill="none" xmlns="http://www.w3.org/2000/svg">
  <defs>
    <linearGradient id="topGlow" x1="116" y1="-40" x2="538" y2="282" gradientUnits="userSpaceOnUse">
      <stop stop-color="#E6B96F" stop-opacity=".34"/>
      <stop offset=".38" stop-color="#B57B37" stop-opacity=".08"/>
      <stop offset="1" stop-color="#080706" stop-opacity="0"/>
    </linearGradient>
    <linearGradient id="arcGold" x1="580" y1="28" x2="900" y2="244" gradientUnits="userSpaceOnUse">
      <stop stop-color="#FFF1BD" stop-opacity=".44"/>
      <stop offset=".36" stop-color="#D2A35B" stop-opacity=".28"/>
      <stop offset=".72" stop-color="#8E5C25" stop-opacity=".1"/>
      <stop offset="1" stop-color="#080706" stop-opacity="0"/>
    </linearGradient>
    <linearGradient id="hairline" x1="16" y1="8" x2="940" y2="14" gradientUnits="userSpaceOnUse">
      <stop stop-color="#E7BE74" stop-opacity=".2"/>
      <stop offset=".46" stop-color="#FFF4CA" stop-opacity=".32"/>
      <stop offset="1" stop-color="#A36B2F" stop-opacity=".14"/>
    </linearGradient>
    <filter id="grain" x="-20%" y="-40%" width="140%" height="180%" color-interpolation-filters="sRGB">
      <feTurbulence type="fractalNoise" baseFrequency=".86" numOctaves="3" seed="18"/>
      <feColorMatrix type="matrix" values="1 0 0 0 0.9 0 1 0 0 0.68 0 0 1 0 0.34 0 0 0 .34 0"/>
    </filter>
    <pattern id="brushed" width="42" height="42" patternUnits="userSpaceOnUse" patternTransform="rotate(-12)">
      <path d="M0 10H42M0 25H42M0 39H42" stroke="#F2D18A" stroke-opacity=".045" stroke-width="1"/>
      <path d="M7 0V42M29 0V42" stroke="#000" stroke-opacity=".055" stroke-width="1"/>
    </pattern>
  </defs>
  <rect width="960" height="260" fill="transparent"/>
  <rect width="960" height="260" fill="url(#brushed)" opacity=".72"/>
  <rect width="960" height="260" filter="url(#grain)" opacity=".2"/>
  <ellipse cx="114" cy="-22" rx="270" ry="138" fill="url(#topGlow)"/>
  <path d="M647 -64C760 8 834 88 884 198" stroke="url(#arcGold)" stroke-width="56" stroke-linecap="round"/>
  <path d="M668 -16C748 42 806 110 848 216" stroke="url(#arcGold)" stroke-width="18" stroke-linecap="round" opacity=".52"/>
  <path d="M18 12C214 4 612 4 942 9" stroke="url(#hairline)" stroke-width="1.2" stroke-linecap="round"/>
  <path d="M34 246C244 256 654 257 930 247" stroke="#000" stroke-opacity=".28" stroke-width="1.4" stroke-linecap="round"/>
  <g opacity=".18">
    <circle cx="832" cy="60" r="1.2" fill="#F6D48B"/>
    <circle cx="868" cy="82" r=".9" fill="#F6D48B"/>
    <circle cx="886" cy="130" r="1.1" fill="#F6D48B"/>
    <circle cx="910" cy="176" r=".8" fill="#F6D48B"/>
    <circle cx="104" cy="42" r="1" fill="#F6D48B"/>
    <circle cx="148" cy="30" r=".72" fill="#F6D48B"/>
  </g>
</svg>
