<svg xmlns="http://www.w3.org/2000/svg" viewBox="0 0 1600 900" role="img" aria-label="Business service illustration">
  <defs>
    <linearGradient id="base" x1="0" y1="0" x2="1" y2="1">
      <stop offset="0" stop-color="#050403"/>
      <stop offset="0.5" stop-color="#161006"/>
      <stop offset="1" stop-color="#060504"/>
    </linearGradient>
    <radialGradient id="golden" cx="62%" cy="25%" r="55%">
      <stop offset="0" stop-color="#ffd98a" stop-opacity="0.45"/>
      <stop offset="0.44" stop-color="#a46f28" stop-opacity="0.16"/>
      <stop offset="1" stop-color="#000" stop-opacity="0"/>
    </radialGradient>
    <linearGradient id="glass" x1="0" y1="0" x2="1" y2="1">
      <stop offset="0" stop-color="#3c280d" stop-opacity="0.95"/>
      <stop offset="1" stop-color="#0b0906" stop-opacity="0.95"/>
    </linearGradient>
  </defs>
  <rect width="1600" height="900" fill="url(#base)"/>
  <rect width="1600" height="900" fill="url(#golden)"/>
  <path d="M0 702 C225 636 410 674 616 626 C862 568 1058 608 1268 542 C1418 496 1528 510 1600 482 L1600 900 L0 900Z" fill="#070604"/>
  <rect x="205" y="210" width="480" height="410" rx="34" fill="url(#glass)" stroke="#d4a655" stroke-opacity="0.28" stroke-width="3"/>
  <rect x="260" y="270" width="370" height="42" rx="21" fill="#f0c56e" opacity="0.35"/>
  <rect x="260" y="356" width="278" height="24" rx="12" fill="#f6d482" opacity="0.24"/>
  <rect x="260" y="410" width="330" height="24" rx="12" fill="#f6d482" opacity="0.18"/>
  <rect x="260" y="464" width="230" height="24" rx="12" fill="#f6d482" opacity="0.18"/>
  <rect x="775" y="250" width="565" height="370" rx="36" fill="#0d0b07" stroke="#d4a655" stroke-opacity="0.32" stroke-width="3"/>
  <path d="M838 545 C930 442 1004 482 1080 396 C1154 312 1240 342 1302 292" fill="none" stroke="#f0c56e" stroke-opacity="0.72" stroke-width="10" stroke-linecap="round"/>
  <circle cx="838" cy="545" r="18" fill="#f7d78a"/>
  <circle cx="1080" cy="396" r="18" fill="#f7d78a"/>
  <circle cx="1302" cy="292" r="18" fill="#f7d78a"/>
  <g fill="#241707" stroke="#d4a655" stroke-opacity="0.22" stroke-width="3">
    <rect x="850" y="604" width="72" height="150" rx="12"/>
    <rect x="960" y="548" width="72" height="206" rx="12"/>
    <rect x="1070" y="494" width="72" height="260" rx="12"/>
    <rect x="1180" y="430" width="72" height="324" rx="12"/>
  </g>
  <path d="M390 705 C528 645 666 642 804 704 C934 762 1082 762 1248 704" fill="none" stroke="#e5b969" stroke-opacity="0.26" stroke-width="3"/>
  <path d="M0 0 H1600 V900 H0Z" fill="#000" opacity="0.2"/>
</svg>
