<svg xmlns="http://www.w3.org/2000/svg" viewBox="0 0 1600 900" role="img" aria-label="YfÄ:o">
  <defs>
    <linearGradient id="bg" x1="0" y1="0" x2="1" y2="1">
      <stop offset="0" stop-color="#080704"/>
      <stop offset="0.48" stop-color="#171107"/>
      <stop offset="1" stop-color="#040403"/>
    </linearGradient>
    <radialGradient id="sun" cx="28%" cy="22%" r="50%">
      <stop offset="0" stop-color="#ffe0a0" stop-opacity="0.5"/>
      <stop offset="0.42" stop-color="#bf8431" stop-opacity="0.16"/>
      <stop offset="1" stop-color="#000" stop-opacity="0"/>
    </radialGradient>
    <linearGradient id="paper" x1="0" y1="0" x2="1" y2="1">
      <stop offset="0" stop-color="#fbdf9d"/>
      <stop offset="1" stop-color="#8b6326"/>
    </linearGradient>
  </defs>
  <rect width="1600" height="900" fill="url(#bg)"/>
  <rect width="1600" height="900" fill="url(#sun)"/>
  <path d="M0 690 C210 630 390 670 575 612 C782 548 980 582 1198 522 C1366 476 1490 492 1600 456 L1600 900 L0 900Z" fill="#080604"/>
  <g opacity="0.85">
    <rect x="800" y="275" width="535" height="330" rx="28" fill="#0d0b08" stroke="#d6a855" stroke-opacity="0.28" stroke-width="3"/>
    <rect x="846" y="318" width="130" height="112" rx="14" fill="#241706"/>
    <rect x="1010" y="318" width="130" height="112" rx="14" fill="#211507"/>
    <rect x="1174" y="318" width="115" height="112" rx="14" fill="#261909"/>
    <rect x="858" y="466" width="420" height="26" rx="13" fill="#d3a85e" opacity="0.34"/>
    <rect x="858" y="520" width="310" height="22" rx="11" fill="#f0c56e" opacity="0.22"/>
  </g>
  <path d="M252 632 L690 540 L842 724 L394 820Z" fill="#0e0b07" stroke="#c89b49" stroke-opacity="0.28" stroke-width="3"/>
  <path d="M335 628 L665 566 L770 700 L430 768Z" fill="url(#paper)" opacity="0.82"/>
  <path d="M410 640 H650 M438 684 H690 M468 726 H635" stroke="#3b260c" stroke-opacity="0.52" stroke-width="12" stroke-linecap="round"/>
  <rect x="220" y="520" width="310" height="92" rx="18" fill="#15100a" stroke="#d3a85e" stroke-opacity="0.26" stroke-width="3"/>
  <rect x="252" y="550" width="190" height="16" rx="8" fill="#f0c56e" opacity="0.5"/>
  <rect x="252" y="582" width="242" height="12" rx="6" fill="#f0c56e" opacity="0.24"/>
  <circle cx="1210" cy="690" r="56" fill="#241707" stroke="#e0b762" stroke-opacity="0.42" stroke-width="4"/>
  <path d="M1182 692 L1202 712 L1240 666" fill="none" stroke="#f6d482" stroke-width="10" stroke-linecap="round" stroke-linejoin="round"/>
  <path d="M0 0 H1600 V900 H0Z" fill="#000" opacity="0.18"/>
</svg>
